<svg width="16" height="16" viewBox="0 0 16 16" fill="none" xmlns="http://www.w3.org/2000/svg">
  <path d="M8 0C3.58 0 0 3.58 0 8C0 11.42 2.29 14.17 5.47 15.25C5.87 15.33 6 15.1 6 14.89C6 14.71 6 14.26 6 13.66C3.95 14.09 3.47 13.11 3.34 12.64C3.24 12.35 2.83 11.63 2.5 11.5C2.22 11.36 1.76 10.89 2.49 10.88C3.2 10.87 3.69 11.55 3.85 11.83C4.57 13.03 5.82 12.71 6.28 12.52C6.35 12.04 6.55 11.74 6.77 11.54C4.92 11.33 3 10.67 3 7.65C3 6.78 3.32 6.08 3.85 5.57C3.77 5.37 3.48 4.52 3.92 3.4C3.92 3.4 4.62 3.18 6 4.24C6.66 4.05 7.35 3.97 8.03 3.97C8.71 3.97 9.4 4.05 10.06 4.24C11.44 3.18 12.14 3.4 12.14 3.4C12.58 4.52 12.29 5.37 12.21 5.57C12.74 6.08 13.06 6.78 13.06 7.65C13.06 10.68 11.13 11.33 9.28 11.54C9.56 11.78 9.8 12.29 9.8 13C9.8 14.02 9.79 14.68 9.79 14.89C9.79 15.1 9.91 15.34 10.33 15.25C13.52 14.17 16 11.42 16 8C16 3.58 12.42 0 8 0Z" fill="white"/>
</svg>
