<svg width="16" height="16" viewBox="0 0 24 24" fill="none" xmlns="http://www.w3.org/2000/svg">
  <path d="M16.8 14.4c.6-.6 1.2-1.2 1.8-1.8 2.4-2.4 2.4-6 0-8.4l-1.8-1.8c-2.4-2.4-6-2.4-8.4 0l-2.4 2.4c-.3.3-.3.9 0 1.2l1.2 1.2c.3.3.9.3 1.2 0l2.4-2.4c.9-.9 2.4-.9 3.3 0l1.8 1.8c.9.9.9 2.4 0 3.3l-1.8 1.8c-.3.3-.3.9 0 1.2l1.2 1.2c.3.3.9.3 1.2 0ZM8.4 8.4l-3.6 3.6c-.3.3-.3.9 0 1.2l3.6 3.6c.3.3.9.3 1.2 0l1.2-1.2c.3-.3.3-.9 0-1.2l-2.4-2.4c-.3-.3-.3-.9 0-1.2l2.4-2.4c.3-.3.3-.9 0-1.2l-1.2-1.2c-.3-.3-.9-.3-1.2 0ZM14.4 18.6l-2.4 2.4c-.9.9-2.4.9-3.3 0l-1.8-1.8c-.9-.9-.9-2.4 0-3.3l1.8-1.8c.3-.3.3-.9 0-1.2l-1.2-1.2c-.3-.3-.9-.3-1.2 0L4.8 15c-2.4 2.4-2.4 6 0 8.4l1.8 1.8c2.4 2.4 6 2.4 8.4 0l2.4-2.4c.3-.3.3-.9 0-1.2l-1.2-1.2c-.3-.3-.9-.3-1.2 0Z" fill="#FFA116"/>
</svg>
